<?xml version="1.0" encoding="iso-8859-1"?>
<!-- Generator: Adobe Illustrator 24.0.3, SVG Export Plug-In . SVG Version: 6.00 Build 0)  -->
<svg version="1.1" xmlns="http://www.w3.org/2000/svg" xmlns:xlink="http://www.w3.org/1999/xlink" x="0px" y="0px"
	 viewBox="0 0 64 64" style="enable-background:new 0 0 64 64;" xml:space="preserve">
<g id="_x33_d">
	<path style="fill:#231F20;" d="M63.837,37.543v-0.204L53.262,6.432l-1.931,0.654l10.411,30.457H2.35l10.33-30.202l-1.941-0.654
		L0.184,37.543H0l0.174,1.103v0.511h0.082l2.851,18.411h22.845l2.789-17.982h6.519l2.799,17.982h22.835l2.902-18.667h0.041v-0.255
		L64,37.543H63.837z M24.194,55.525H4.863L2.381,39.586h24.296L24.194,55.525z M59.147,55.525H39.806l-2.473-15.939h24.286
		L59.147,55.525z M21.671,9.364v3.474h2.043v-1.43h5.333v8.337h-6.355v2.043h6.355v7.898h-5.333v-1.757h-2.043v3.801h9.42V9.364
		H21.671z M38.549,9.364h-4.547v22.365h4.547c3.944,0,7.152-3.208,7.152-7.152v-8.061C45.701,12.572,42.493,9.364,38.549,9.364z
		 M43.658,24.577c0,2.82-2.289,5.109-5.109,5.109h-2.503V11.407h2.503c2.82,0,5.109,2.289,5.109,5.109V24.577z"/>
	<polygon style="fill:#6DDCE1;" points="61.619,39.586 59.147,55.525 39.806,55.525 37.333,39.586 	"/>
	<polygon style="fill:#FEBB43;" points="26.677,39.586 24.194,55.525 4.863,55.525 2.381,39.586 	"/>
</g>
<g id="Layer_1">
</g>
</svg>
