<?xml version="1.0" encoding="iso-8859-1"?>
<!-- Generator: Adobe Illustrator 24.0.3, SVG Export Plug-In . SVG Version: 6.00 Build 0)  -->
<svg version="1.1" xmlns="http://www.w3.org/2000/svg" xmlns:xlink="http://www.w3.org/1999/xlink" x="0px" y="0px"
	 viewBox="0 0 64 64" style="enable-background:new 0 0 64 64;" xml:space="preserve">
<g id="clip-montage">
	<path style="fill:#231F20;" d="M32.914,19.236h1.829v3.657h-1.829V19.236z M40.257,49.057c0.072-0.78,0.311-1.522,0.723-2.177
		l-3.226-3.226l1.293-1.293l3.18,3.18c0.853-0.638,1.875-0.998,2.959-0.998c1.328,0,2.577,0.518,3.517,1.457l2.495,2.495
		c1.939,1.939,1.939,5.095,0,7.034c-0.97,0.97-2.243,1.454-3.517,1.454c-1.273,0-2.547-0.485-3.517-1.454l-2.285-2.285l-0.01,0.01
		l-8.047-8.047l-8.03,8.046l-0.01-0.01c-0.101,0.123-0.187,0.255-0.302,0.37l-2.495,2.495c-0.939,0.939-2.188,1.457-3.517,1.457
		c-1.329,0-2.578-0.518-3.517-1.457c-0.94-0.939-1.457-2.188-1.457-3.517s0.517-2.578,1.457-3.517l2.495-2.495
		c0.939-0.939,2.188-1.457,3.517-1.457c1.068,0,2.076,0.348,2.922,0.968l4.749-4.749l-6.212-5.647H0V6.436h30.171h2.743H64v29.257
		H43.315l-8.203,8.219L40.257,49.057z M46.629,22.438v5.547c0,0.442-0.036,0.877-0.087,1.308h1.041V12.836H34.743v3.657h-1.829
		v-3.657H16.496v16.457h16.418v-3.657h1.829v3.657h5.054L46.629,22.438z M37.975,31.121h-3.232v2.743h0.499L37.975,31.121z
		 M29.257,8.264h-1.829v2.743h1.829V8.264z M25.6,8.264h-1.829v2.743H25.6V8.264z M21.943,8.264h-1.829v2.743h1.829V8.264z
		 M18.286,8.264h-1.829v2.743h1.829V8.264z M14.629,8.264H12.8v2.743h1.829V8.264z M10.971,8.264H9.143v2.743h1.829V8.264z
		 M7.314,8.264H5.486v2.743h1.829V8.264z M1.829,12.836v16.457h12.839V12.836H1.829z M5.486,31.121v2.743h1.829v-2.743H5.486z
		 M9.143,33.864h1.829v-2.743H9.143V33.864z M12.8,33.864h1.829v-2.743H12.8V33.864z M16.457,33.864h1.829v-2.743h-1.789h-0.039
		V33.864z M20.114,33.864h1.829v-2.743h-1.829V33.864z M23.771,33.864H25.6v-2.743h-1.829V33.864z M27.429,33.864h1.829v-2.743
		h-1.829V33.864z M31.086,31.121v2.743h1.829v-2.743H31.086z M49.371,33.864H51.2v-2.743h-1.789h-0.039V33.864z M53.029,33.864
		h1.829v-2.743h-1.829V33.864z M56.686,33.864h1.829v-2.743h-1.829V33.864z M62.171,29.293V12.836H49.411v16.457H62.171z
		 M58.514,11.007V8.264h-1.829v2.743H58.514z M54.857,8.264h-1.829v2.743h1.829V8.264z M51.2,8.264h-1.829v2.743H51.2V8.264z
		 M47.543,8.264h-1.829v2.743h1.829V8.264z M43.886,8.264h-1.829v2.743h1.829V8.264z M40.229,8.264H38.4v2.743h1.829V8.264z
		 M36.571,8.264h-1.829v2.743h1.829V8.264z M44.863,33.864h2.68v-2.743h-1.38C45.866,32.096,45.43,33.019,44.863,33.864z
		 M62.171,33.864v-2.743h-1.829v2.743H62.171z M62.171,8.264h-1.829v2.743h1.829V8.264z M32.914,8.264h-1.829v2.743h1.829V8.264z
		 M1.829,8.264v2.743h1.829V8.264H1.829z M1.829,33.864h1.829v-2.743H1.829V33.864z M30.986,42.571l-4.843,4.843
		c0.424,0.661,0.659,1.401,0.738,2.157l15.407-15.438c1.62-1.62,2.512-3.804,2.512-6.148v-1.122l-8.764,8.83h-2.577l1.099,1.099
		l-1.293,1.293l-2.392-2.392h-4.55l5.99,5.572L30.986,42.571z M24.185,52.32c1.226-1.227,1.226-3.221,0-4.448
		c-0.594-0.595-1.384-0.921-2.224-0.921s-1.63,0.327-2.224,0.921l-2.495,2.495c-0.594,0.595-0.921,1.384-0.921,2.224
		s0.327,1.63,0.921,2.224c1.188,1.188,3.259,1.19,4.448,0L24.185,52.32z M42.961,47.292c-0.594,0.594-0.921,1.384-0.921,2.224
		s0.327,1.629,0.921,2.224l2.495,2.495c1.227,1.226,3.222,1.224,4.448,0c1.226-1.227,1.226-3.221,0-4.448l-2.495-2.495
		c-0.594-0.594-1.384-0.921-2.224-0.921C44.345,46.371,43.555,46.698,42.961,47.292z"/>
	<path style="fill:#6DDCE1;" d="M44.796,26.86v1.125c0,2.341-0.887,4.526-2.505,6.144L26.885,49.571
		c-0.082-0.759-0.32-1.499-0.741-2.158l4.846-4.846l1.326-1.307l-5.989-5.568h4.544l2.395,2.395l1.289-1.298l-1.097-1.097h2.578
		L44.796,26.86z"/>
	<rect x="49.413" y="12.835" style="fill:#6DDCE1;" width="12.754" height="16.457"/>
	<path style="fill:#FEBB43;" d="M34.739,12.835v3.657H32.91v-3.657H16.499v16.457H32.91v-3.657h1.829v3.657h5.056l6.83-6.857v5.55
		c0,0.439-0.027,0.878-0.082,1.307h1.042V12.835H34.739z M34.739,22.892H32.91v-3.657h1.829V22.892z"/>
	<rect x="1.824" y="12.835" style="fill:#6DDCE1;" width="12.846" height="16.457"/>
</g>
<g id="Layer_1">
</g>
</svg>
