<?xml version="1.0" encoding="iso-8859-1"?>
<!-- Generator: Adobe Illustrator 24.0.3, SVG Export Plug-In . SVG Version: 6.00 Build 0)  -->
<svg version="1.1" xmlns="http://www.w3.org/2000/svg" xmlns:xlink="http://www.w3.org/1999/xlink" x="0px" y="0px"
	 viewBox="0 0 64 64" style="enable-background:new 0 0 64 64;" xml:space="preserve">
<g id="script">
	<path style="fill:#231F20;" d="M31.629,37.391h23.439v2.239H31.629V37.391z M26.42,44.839h2.604V42.6H26.42V44.839z M31.629,44.839
		h23.439V42.6H31.629V44.839z M15.262,10.209v38.172c0,4.804-3.975,9.91-4.143,10.134l-0.885,1.109l-0.873-1.109
		c-0.168-0.224-4.154-5.33-4.154-10.134V16.95H2.239v10.604H0v-16.93h2.239v4.087h2.967v-4.501c0-2.889,2.217-5.151,5.028-5.151
		C13.056,5.058,15.262,7.32,15.262,10.209z M12.933,49.512H7.547c0.358,2.419,1.758,4.904,2.687,6.349
		C11.175,54.416,12.575,51.93,12.933,49.512z M13.022,16.95H7.446v30.322h5.576V16.95z M13.022,10.209
		c0-1.635-1.221-2.911-2.788-2.911c-1.556,0-2.788,1.277-2.788,2.911v4.501h5.576V10.209z M64,14.609v42.132
		c0,2.054-1.67,3.724-3.724,3.724H21.211c-2.054,0-3.724-1.671-3.724-3.724V7.259c0-2.054,1.67-3.724,3.724-3.724h31.715L64,14.609z
		 M52.281,15.254h9.198l-9.198-9.198V15.254z M61.761,17.493H50.041V5.774h-28.83c-0.818,0-1.484,0.666-1.484,1.485v49.481
		c0,0.819,0.666,1.485,1.484,1.485h39.065c0.818,0,1.484-0.666,1.484-1.485V17.493z M26.42,50.047h2.604v-2.239H26.42V50.047z
		 M34.983,20.697c-0.146-0.821,0.123-1.678,0.72-2.269c0.967-0.955,2.511-0.981,3.51-0.08l6.452,4.068
		c0.615,0.289,1.098,0.788,1.368,1.417c0.592,1.38-0.022,2.979-1.371,3.613l-6.388,3.98c-0.474,0.412-1.075,0.635-1.693,0.635
		c-0.183,0-0.367-0.02-0.55-0.059c-0.671-0.144-1.248-0.543-1.622-1.123c-0.349-0.54-0.482-1.178-0.38-1.808L34.983,20.697z
		 M37.192,20.321l0.031,0.254l0.049,8.714l-0.026,0.12c-0.026,0.119,0.018,0.212,0.046,0.257c0.035,0.054,0.101,0.124,0.214,0.148
		c0.113,0.026,0.229-0.009,0.312-0.089l0.186-0.145l6.688-4.152c0.274-0.118,0.402-0.436,0.284-0.71
		c-0.055-0.128-0.156-0.23-0.283-0.283l-0.157-0.083l-6.81-4.327c-0.062-0.062-0.144-0.094-0.226-0.094
		c-0.08,0-0.161,0.031-0.223,0.091C37.198,20.1,37.165,20.212,37.192,20.321z M26.42,39.631h2.604v-2.239H26.42V39.631z
		 M31.629,50.047h23.439v-2.239H31.629V50.047z"/>
	<path style="fill:#FEBB43;" d="M12.933,49.512c-0.358,2.419-1.758,4.904-2.699,6.349c-0.929-1.444-2.329-3.93-2.687-6.349H12.933z
		 M7.446,16.95v30.322h5.576V16.95H7.446z"/>
	<path style="fill:#6DDCE1;" d="M50.041,17.499V5.775H21.208c-0.817,0-1.478,0.661-1.478,1.489v49.481
		c0,0.817,0.661,1.478,1.478,1.478h39.067c0.817,0,1.489-0.661,1.489-1.478V17.499H50.041z M35.708,18.428
		c0.963-0.952,2.508-0.985,3.505-0.078l6.45,4.065c0.616,0.291,1.097,0.795,1.366,1.422c0.593,1.377-0.022,2.978-1.366,3.605
		l-6.382,3.986c-0.481,0.414-1.075,0.638-1.702,0.638c-0.179,0-0.358-0.022-0.549-0.067c-0.672-0.146-1.243-0.537-1.624-1.12
		c-0.347-0.537-0.481-1.176-0.37-1.803l-0.056-8.376C34.835,19.872,35.103,19.021,35.708,18.428z M29.023,50.049h-2.598V47.81h2.598
		V50.049z M29.023,44.842h-2.598v-2.239h2.598V44.842z M29.023,39.636h-2.598v-2.239h2.598V39.636z M55.068,50.049H31.632V47.81
		h23.436V50.049z M55.068,44.842H31.632v-2.239h23.436V44.842z M55.068,39.636H31.632v-2.239h23.436V39.636z"/>
	<path style="fill:#FEBB43;" d="M44.688,25.426l-6.685,4.154l-0.19,0.146c-0.078,0.078-0.19,0.112-0.302,0.09
		c-0.123-0.022-0.179-0.101-0.224-0.146c-0.022-0.045-0.067-0.146-0.045-0.258l0.034-0.123l-0.056-8.712l-0.034-0.258
		c-0.022-0.112,0.011-0.224,0.09-0.302c0.067-0.056,0.146-0.09,0.224-0.09c0.078,0,0.168,0.034,0.224,0.101l6.808,4.322l0.157,0.078
		c0.134,0.056,0.235,0.157,0.291,0.291C45.091,24.99,44.968,25.314,44.688,25.426z"/>
</g>
<g id="Layer_1">
</g>
</svg>
