<?xml version="1.0" encoding="iso-8859-1"?>
<!-- Generator: Adobe Illustrator 24.0.3, SVG Export Plug-In . SVG Version: 6.00 Build 0)  -->
<svg version="1.1" xmlns="http://www.w3.org/2000/svg" xmlns:xlink="http://www.w3.org/1999/xlink" x="0px" y="0px"
	 viewBox="0 0 64 64" style="enable-background:new 0 0 64 64;" xml:space="preserve">
<g id="sound-recording">
	<path style="fill:#231F20;" d="M60.246,2.145H3.754C1.684,2.145,0,3.829,0,5.899v52.202c0,2.07,1.684,3.754,3.754,3.754h56.492
		c2.07,0,3.754-1.684,3.754-3.754V5.899C64,3.829,62.316,2.145,60.246,2.145z M3.754,4.648h56.492c0.69,0,1.251,0.561,1.251,1.251
		v6.258H2.503V5.899C2.503,5.209,3.064,4.648,3.754,4.648z M60.246,59.352H3.754c-0.69,0-1.251-0.561-1.251-1.251V14.66h58.995
		v43.441C61.497,58.791,60.936,59.352,60.246,59.352z M8.402,9.636h-2.86V7.133h2.86V9.636z M14.123,9.636h-2.86V7.133h2.86V9.636z
		 M19.844,9.636h-2.86V7.133h2.86V9.636z M14.292,32.255h2.83v2.503h-2.83v14.685h-2.503V34.758H8.959v-2.503h2.831v-8.038h2.503
		V32.255z M26.805,42.266h2.83v2.503h-2.83v4.674h-2.503v-4.674h-2.831v-2.503h2.831V24.217h2.503V42.266z M39.319,27.25h2.83v2.503
		h-2.83v19.69h-2.503v-19.69h-2.831V27.25h2.831v-3.033h2.503V27.25z M51.832,38.512h2.83v2.503h-2.83v8.428h-2.503v-8.428h-2.831
		v-2.503h2.831V24.217h2.503V38.512z"/>
	<path style="fill:#6DDCE1;" d="M60.243,4.649H3.757c-0.688,0-1.251,0.563-1.251,1.251v6.257h58.988V5.9
		C61.494,5.212,60.931,4.649,60.243,4.649z M8.4,9.642H5.547V7.139H8.4V9.642z M14.118,9.642h-2.853V7.139h2.853V9.642z
		 M19.85,9.642h-2.866V7.139h2.866V9.642z"/>
	<path style="fill:#FEBB43;" d="M2.506,14.659v43.446c0,0.688,0.563,1.251,1.251,1.251h56.485c0.688,0,1.251-0.563,1.251-1.251
		V14.659H2.506z M17.122,34.756h-2.828v14.691h-2.503V34.756H8.963v-2.503h2.828V24.22h2.503v8.034h2.828V34.756z M29.635,44.767
		h-2.828v4.68h-2.503v-4.68h-2.828v-2.503h2.828V24.22h2.503v18.044h2.828V44.767z M42.148,29.751H39.32v19.696h-2.503V29.751H33.99
		v-2.503h2.828V24.22h2.503v3.028h2.828V29.751z M54.662,41.013h-2.828v8.434h-2.503v-8.434h-2.828V38.51h2.828V24.22h2.503v14.29
		h2.828V41.013z"/>
</g>
<g id="Layer_1">
</g>
</svg>
