<svg xmlns="http://www.w3.org/2000/svg" viewBox="0 0 256 256"><title>icon</title><path d="M189.6,95.048a2.5,2.5,0,0,1-2.5-2.5V54.256H157.333a2.5,2.5,0,0,1,0-5H189.6a2.5,2.5,0,0,1,2.5,2.5V92.548A2.5,2.5,0,0,1,189.6,95.048Z" fill="#ed9abc"/><path d="M66.4,95.048h0a2.5,2.5,0,0,1-2.5-2.5V51.756a2.5,2.5,0,0,1,2.5-2.5H98.667a2.5,2.5,0,0,1,0,5H68.9V92.548A2.5,2.5,0,0,1,66.4,95.048Z" fill="#ed9abc"/><path d="M98.667,206.744H66.4a2.5,2.5,0,0,1-2.5-2.5V163.452a2.5,2.5,0,1,1,5,0v38.292H98.667a2.5,2.5,0,0,1,0,5Z" fill="#ed9abc"/><path d="M189.6,206.744H157.333a2.5,2.5,0,0,1,0-5H187.1V163.452a2.5,2.5,0,0,1,2.5-2.5h0a2.5,2.5,0,0,1,2.5,2.5v40.792A2.5,2.5,0,0,1,189.6,206.744Z" fill="#ed9abc"/><path d="M224,90.048H32a2.5,2.5,0,0,0-2.5,2.5v70.9a2.5,2.5,0,0,0,2.5,2.5H224a2.5,2.5,0,0,0,2.5-2.5v-70.9A2.5,2.5,0,0,0,224,90.048Zm-2.5,70.9H34.5v-65.9h187Z" fill="#846f75"/><path d="M100.083,59.9l5.09,1.312L102.5,65.74a5.221,5.221,0,0,0,.808,6.343l4.365,4.365a5.224,5.224,0,0,0,6.346.807l4.526-2.672,1.311,5.092a5.224,5.224,0,0,0,5.057,3.915h6.174a5.226,5.226,0,0,0,5.058-3.917l1.311-5.089,4.527,2.673a5.221,5.221,0,0,0,6.343-.808l4.366-4.366a5.222,5.222,0,0,0,.807-6.345l-2.672-4.526L155.92,59.9a5.223,5.223,0,0,0,3.913-5.057V48.669a5.222,5.222,0,0,0-3.913-5.056h0l-5.09-1.311,2.673-4.528a5.223,5.223,0,0,0-.808-6.344l-4.365-4.365a5.221,5.221,0,0,0-6.346-.806l-4.525,2.671-1.312-5.093a5.225,5.225,0,0,0-5.057-3.913h-6.174a5.224,5.224,0,0,0-5.057,3.916l-1.311,5.09-4.528-2.673a5.224,5.224,0,0,0-6.343.807l-4.366,4.367a5.221,5.221,0,0,0-.807,6.344l2.672,4.527-5.093,1.312a5.222,5.222,0,0,0-3.913,5.056v6.174A5.223,5.223,0,0,0,100.083,59.9Zm1.084-11.231a.222.222,0,0,1,.164-.215l8.308-2.141a2.5,2.5,0,0,0,1.529-3.691l-4.359-7.387a.221.221,0,0,1,.034-.27L111.21,30.6a.222.222,0,0,1,.268-.036l7.387,4.361a2.5,2.5,0,0,0,3.692-1.528l2.141-8.307a.223.223,0,0,1,.215-.166h6.174a.224.224,0,0,1,.216.164l2.14,8.308a2.5,2.5,0,0,0,3.692,1.529l7.386-4.359a.219.219,0,0,1,.27.035l4.366,4.365a.22.22,0,0,1,.035.268l-4.36,7.389a2.5,2.5,0,0,0,1.529,3.691l8.305,2.141a.221.221,0,0,1,.167.215v6.174a.222.222,0,0,1-.164.216l-8.308,2.14a2.5,2.5,0,0,0-1.529,3.692l4.359,7.386a.221.221,0,0,1-.034.27l-4.367,4.367a.221.221,0,0,1-.268.036l-7.387-4.362a2.5,2.5,0,0,0-3.692,1.53l-2.139,8.3a.225.225,0,0,1-.217.168h-6.174a.223.223,0,0,1-.215-.165l-2.141-8.308a2.5,2.5,0,0,0-3.692-1.529l-7.386,4.36a.221.221,0,0,1-.27-.035l-4.366-4.365a.222.222,0,0,1-.035-.269l4.36-7.388a2.5,2.5,0,0,0-1.529-3.692l-8.3-2.14a.222.222,0,0,1-.167-.216Z" fill="#846f75"/><path d="M128,63.721a11.965,11.965,0,1,0-11.964-11.965A11.978,11.978,0,0,0,128,63.721Zm0-18.929a6.965,6.965,0,1,1-6.964,6.964A6.972,6.972,0,0,1,128,44.792Z" fill="#846f75"/><path d="M155.773,178.942H100.227a4.064,4.064,0,0,0-4.06,4.06v42.483a4.064,4.064,0,0,0,4.06,4.06h55.546a4.064,4.064,0,0,0,4.06-4.06V183A4.064,4.064,0,0,0,155.773,178.942Zm-.94,45.6H101.167v-40.6h53.666Z" fill="#846f75"/><path d="M124.225,213.319a2.5,2.5,0,0,0,3.268-1.348l5.631-13.534a2.5,2.5,0,0,0-4.617-1.921l-5.631,13.534A2.5,2.5,0,0,0,124.225,213.319Z" fill="#846f75"/><path d="M137.449,212.733a2.5,2.5,0,0,0,3.535,0l6.722-6.722a2.5,2.5,0,0,0,0-3.535l-6.722-6.722a2.5,2.5,0,1,0-3.535,3.536l4.954,4.954-4.954,4.954A2.5,2.5,0,0,0,137.449,212.733Z" fill="#846f75"/><path d="M115.016,212.733a2.5,2.5,0,1,0,3.535-3.535l-4.954-4.954,4.954-4.954a2.5,2.5,0,0,0-3.535-3.536l-6.722,6.722a2.5,2.5,0,0,0,0,3.535Z" fill="#846f75"/><path d="M147.785,140.28a10.468,10.468,0,0,0,4.706,3.737,16.582,16.582,0,0,0,6.551,1.279,13.807,13.807,0,0,0,8.516-2.476,8.22,8.22,0,0,0,3.419-6.864,8.573,8.573,0,0,0-1.279-4.691,10.315,10.315,0,0,0-3.678-3.346,29.871,29.871,0,0,0-6.681-2.509,16.893,16.893,0,0,1-5.763-2.472,3.661,3.661,0,0,1-1.494-3.036,3.885,3.885,0,0,1,1.692-3.313,8.293,8.293,0,0,1,5.073-1.387,7.437,7.437,0,0,1,5.176,1.679,5.488,5.488,0,0,1,1.829,4.352,1.125,1.125,0,0,0,1.125,1.125h2.68a1.126,1.126,0,0,0,1.125-1.125,10.01,10.01,0,0,0-1.535-5.421,10.337,10.337,0,0,0-4.3-3.783,13.764,13.764,0,0,0-6.1-1.325,13.353,13.353,0,0,0-8.28,2.488,8.387,8.387,0,0,0,.248,13.687,24.384,24.384,0,0,0,7.491,3.167c3.85,1.081,5.555,2.054,6.308,2.679a4.288,4.288,0,0,1-.333,6.667,8.763,8.763,0,0,1-5.239,1.406,9.479,9.479,0,0,1-5.927-1.69,5.17,5.17,0,0,1-2.05-4.362,1.125,1.125,0,0,0-1.125-1.125h-2.659a1.126,1.126,0,0,0-1.125,1.125A9.736,9.736,0,0,0,147.785,140.28Z" fill="#ed9abc"/><path d="M118.019,140.28a10.481,10.481,0,0,0,4.706,3.737,16.574,16.574,0,0,0,6.55,1.279,13.8,13.8,0,0,0,8.516-2.476,8.217,8.217,0,0,0,3.419-6.864,8.581,8.581,0,0,0-1.278-4.691,10.319,10.319,0,0,0-3.679-3.346,29.793,29.793,0,0,0-6.681-2.509,16.874,16.874,0,0,1-5.762-2.472,3.662,3.662,0,0,1-1.5-3.036,3.889,3.889,0,0,1,1.693-3.313,8.293,8.293,0,0,1,5.073-1.387,7.441,7.441,0,0,1,5.176,1.679,5.491,5.491,0,0,1,1.828,4.352,1.126,1.126,0,0,0,1.125,1.125h2.681a1.126,1.126,0,0,0,1.125-1.125,10.006,10.006,0,0,0-1.536-5.421,10.332,10.332,0,0,0-4.294-3.783,13.775,13.775,0,0,0-6.105-1.325,13.353,13.353,0,0,0-8.28,2.488,8.387,8.387,0,0,0,.249,13.688,24.385,24.385,0,0,0,7.489,3.166c3.849,1.081,5.556,2.054,6.31,2.679a4.291,4.291,0,0,1-.334,6.667,8.767,8.767,0,0,1-5.24,1.406,9.48,9.48,0,0,1-5.926-1.69,5.17,5.17,0,0,1-2.05-4.362,1.126,1.126,0,0,0-1.125-1.125h-2.659a1.126,1.126,0,0,0-1.125,1.125A9.736,9.736,0,0,0,118.019,140.28Z" fill="#ed9abc"/><path d="M98.19,110.7a12.678,12.678,0,0,0-6.951,1.939,12.463,12.463,0,0,0-4.645,5.488,19.043,19.043,0,0,0-1.571,7.9v4.093a18.844,18.844,0,0,0,1.594,7.8,12.583,12.583,0,0,0,4.571,5.437A12.259,12.259,0,0,0,98,145.3a12.9,12.9,0,0,0,8.773-2.915,12.414,12.414,0,0,0,3.934-8.336,1.124,1.124,0,0,0-1.118-1.246H106.9a1.126,1.126,0,0,0-1.116.985,8.566,8.566,0,0,1-2.272,5.321c-1.192,1.124-3.048,1.693-5.52,1.693a6.849,6.849,0,0,1-5.8-2.8,12.972,12.972,0,0,1-2.245-8.017v-3.85c0-3.487.773-6.23,2.3-8.15A7.12,7.12,0,0,1,98.19,115.2c4.524,0,7.009,2.3,7.6,7.034a1.126,1.126,0,0,0,1.116.987h2.681a1.123,1.123,0,0,0,1.119-1.235,12.55,12.55,0,0,0-3.759-8.259A12.4,12.4,0,0,0,98.19,110.7Z" fill="#ed9abc"/></svg>