<svg xmlns="http://www.w3.org/2000/svg" viewBox="0 0 256 256"><title>icon</title><path d="M103,51.339H90.333a2.5,2.5,0,0,1,0-5H103a2.5,2.5,0,0,1,0,5Z" fill="#ebe7f2"/><path d="M128,51.339H115.333a2.5,2.5,0,0,1,0-5H128a2.5,2.5,0,0,1,0,5Z" fill="#ebe7f2"/><path d="M153,51.339H140.333a2.5,2.5,0,0,1,0-5H153a2.5,2.5,0,0,1,0,5Z" fill="#ebe7f2"/><path d="M61.333,95.833h-15a2.5,2.5,0,0,1,0-5h15a2.5,2.5,0,0,1,0,5Z" fill="#65c1d6"/><path d="M61.333,122.5h-15a2.5,2.5,0,0,1,0-5h15a2.5,2.5,0,0,1,0,5Z" fill="#65c1d6"/><path d="M61.333,149.167h-15a2.5,2.5,0,0,1,0-5h15a2.5,2.5,0,0,1,0,5Z" fill="#65c1d6"/><path d="M53.833,66a10,10,0,1,1,10-10A10.011,10.011,0,0,1,53.833,66Zm0-15a5,5,0,1,0,5,5A5.006,5.006,0,0,0,53.833,51Z" fill="#65c1d6"/><path d="M217,31.966H39a7.508,7.508,0,0,0-7.5,7.5V175.6a7.509,7.509,0,0,0,7.5,7.5h68.652a20.1,20.1,0,0,1-5.726,19.816L98.515,206.1H91a9,9,0,0,0,0,18h74a9,9,0,0,0,0-18h-7.515l-3.411-3.184a20.1,20.1,0,0,1-5.726-19.816H217a7.509,7.509,0,0,0,7.5-7.5V39.466A7.508,7.508,0,0,0,217,31.966Zm2.5,7.5V59.5H80V36.966H217A2.5,2.5,0,0,1,219.5,39.466ZM36.5,175.6V39.466a2.5,2.5,0,0,1,2.5-2.5H75v140.74a2.5,2.5,0,0,0,.04.4H39A2.5,2.5,0,0,1,36.5,175.6ZM169,215.1a4,4,0,0,1-4,4H91a4,4,0,0,1,0-8h74A4,4,0,0,1,169,215.1Zm-18.829-9H105.829a25.1,25.1,0,0,0,6.965-23h30.412A25.1,25.1,0,0,0,150.171,206.1ZM217,178.1H79.96a2.5,2.5,0,0,0,.04-.4V64.5H219.5V175.6A2.5,2.5,0,0,1,217,178.1Z" fill="#846f75"/><path d="M118.333,72.833a25.377,25.377,0,0,0-16.4,5.994,2.5,2.5,0,0,0-.419.334c-.031.03-.052.066-.08.1a25.481,25.481,0,1,0,16.9-6.426Zm20.332,23h-7.073a13.465,13.465,0,0,0-19.385-9.515L107.1,81.207a20.462,20.462,0,0,1,31.569,14.626Zm-20.332,11a8.5,8.5,0,1,1,8.5-8.5A8.51,8.51,0,0,1,118.333,106.833Zm-20.5-8.5a20.4,20.4,0,0,1,5.448-13.87l4.948,4.947a13.469,13.469,0,0,0,7.6,22.182v7.073A20.52,20.52,0,0,1,97.833,98.333Zm23,20.332v-7.073a13.527,13.527,0,0,0,10.759-10.759h7.073A20.522,20.522,0,0,1,120.833,118.665Z" fill="#846f75"/><path d="M159.333,85.167h12.334a2.5,2.5,0,0,0,0-5H159.333a2.5,2.5,0,0,0,0,5Z" fill="#846f75"/><path d="M203.333,93.5h-44a2.5,2.5,0,0,0,0,5h44a2.5,2.5,0,0,0,0-5Z" fill="#846f75"/><path d="M192.833,109.333a2.5,2.5,0,0,0-2.5-2.5h-31a2.5,2.5,0,0,0,0,5h31A2.5,2.5,0,0,0,192.833,109.333Z" fill="#846f75"/><path d="M108.975,130.994H96.667a2.5,2.5,0,0,0-2.5,2.5V162a2.5,2.5,0,0,0,2.5,2.5h12.308a2.5,2.5,0,0,0,2.5-2.5V133.494A2.5,2.5,0,0,0,108.975,130.994Zm-2.5,28.506H99.167V135.994h7.308Z" fill="#846f75"/><path d="M132.564,142.5H120.257a2.5,2.5,0,0,0-2.5,2.5v17a2.5,2.5,0,0,0,2.5,2.5h12.307a2.5,2.5,0,0,0,2.5-2.5V145A2.5,2.5,0,0,0,132.564,142.5Zm-2.5,17h-7.307v-12h7.307Z" fill="#846f75"/><path d="M156.154,149.167H143.846a2.5,2.5,0,0,0-2.5,2.5V162a2.5,2.5,0,0,0,2.5,2.5h12.308a2.5,2.5,0,0,0,2.5-2.5V151.667A2.5,2.5,0,0,0,156.154,149.167Zm-2.5,10.333h-7.308v-5.333h7.308Z" fill="#846f75"/><path d="M179.743,137.5H167.436a2.5,2.5,0,0,0-2.5,2.5v22a2.5,2.5,0,0,0,2.5,2.5h12.307a2.5,2.5,0,0,0,2.5-2.5V140A2.5,2.5,0,0,0,179.743,137.5Zm-2.5,22h-7.307v-17h7.307Z" fill="#846f75"/><path d="M203.333,130.994H191.025a2.5,2.5,0,0,0-2.5,2.5V162a2.5,2.5,0,0,0,2.5,2.5h12.308a2.5,2.5,0,0,0,2.5-2.5V133.494A2.5,2.5,0,0,0,203.333,130.994Zm-2.5,28.506h-7.308V135.994h7.308Z" fill="#846f75"/></svg>