<svg xmlns="http://www.w3.org/2000/svg" viewBox="0 0 256 256"><title>icon</title><path d="M189.6,95.048a2.5,2.5,0,0,1-2.5-2.5V54.256H157.333a2.5,2.5,0,0,1,0-5H189.6a2.5,2.5,0,0,1,2.5,2.5V92.548A2.5,2.5,0,0,1,189.6,95.048Z" fill="#a58bc9"/><path d="M66.4,95.048h0a2.5,2.5,0,0,1-2.5-2.5V51.756a2.5,2.5,0,0,1,2.5-2.5H98.667a2.5,2.5,0,0,1,0,5H68.9V92.548A2.5,2.5,0,0,1,66.4,95.048Z" fill="#a58bc9"/><path d="M98.667,206.744H66.4a2.5,2.5,0,0,1-2.5-2.5V163.452a2.5,2.5,0,1,1,5,0v38.292H98.667a2.5,2.5,0,0,1,0,5Z" fill="#a58bc9"/><path d="M189.6,206.744H157.333a2.5,2.5,0,0,1,0-5H187.1V163.452a2.5,2.5,0,0,1,2.5-2.5h0a2.5,2.5,0,0,1,2.5,2.5v40.792A2.5,2.5,0,0,1,189.6,206.744Z" fill="#a58bc9"/><path d="M174.479,111.6h-2.6a1.142,1.142,0,0,0-1.141,1.141v30.522a1.142,1.142,0,0,0,1.141,1.141h17.673a1.142,1.142,0,0,0,1.14-1.141v-2.18a1.142,1.142,0,0,0-1.14-1.142H175.62v-27.2A1.142,1.142,0,0,0,174.479,111.6Z" fill="#a58bc9"/><path d="M160.992,112.739a1.142,1.142,0,0,0-1.141-1.141h-3.439a1.139,1.139,0,0,0-1.052.7l-10.244,24.425L134.911,112.3a1.139,1.139,0,0,0-1.054-.7H130.44a1.142,1.142,0,0,0-1.141,1.141v30.522a1.142,1.142,0,0,0,1.141,1.141h2.58a1.142,1.142,0,0,0,1.14-1.141v-13.4l-.119-7.561,9.038,21.4a1.14,1.14,0,0,0,1.051.7h1.991a1.139,1.139,0,0,0,1.051-.7l9.081-21.51-.121,7.782v13.285a1.142,1.142,0,0,0,1.141,1.141h2.578a1.142,1.142,0,0,0,1.141-1.141Z" fill="#a58bc9"/><path d="M86.468,144.4h2.6a1.143,1.143,0,0,0,1.142-1.141V112.739a1.143,1.143,0,0,0-1.142-1.141h-2.6a1.143,1.143,0,0,0-1.142,1.141v12.569H70.169V112.739a1.143,1.143,0,0,0-1.142-1.141H66.448a1.142,1.142,0,0,0-1.14,1.141v30.522a1.142,1.142,0,0,0,1.14,1.141h2.579a1.143,1.143,0,0,0,1.142-1.141V129.77H85.326v13.491A1.143,1.143,0,0,0,86.468,144.4Z" fill="#a58bc9"/><path d="M108.183,144.4h2.579a1.142,1.142,0,0,0,1.14-1.141v-27.2h9.32a1.142,1.142,0,0,0,1.141-1.142v-2.18a1.142,1.142,0,0,0-1.141-1.141H97.742a1.142,1.142,0,0,0-1.14,1.141v2.18a1.142,1.142,0,0,0,1.14,1.142h9.3v27.2A1.143,1.143,0,0,0,108.183,144.4Z" fill="#a58bc9"/><path d="M224,90.048H32a2.5,2.5,0,0,0-2.5,2.5v70.9a2.5,2.5,0,0,0,2.5,2.5H224a2.5,2.5,0,0,0,2.5-2.5v-70.9A2.5,2.5,0,0,0,224,90.048Zm-2.5,70.9H34.5v-65.9h187Z" fill="#846f75"/><path d="M100.083,59.9l5.09,1.312L102.5,65.74a5.221,5.221,0,0,0,.808,6.343l4.365,4.365a5.224,5.224,0,0,0,6.346.807l4.526-2.672,1.311,5.092a5.224,5.224,0,0,0,5.057,3.915h6.174a5.226,5.226,0,0,0,5.058-3.917l1.311-5.089,4.527,2.673a5.22,5.22,0,0,0,6.343-.808l4.366-4.366a5.222,5.222,0,0,0,.807-6.345l-2.672-4.526L155.92,59.9a5.223,5.223,0,0,0,3.913-5.057V48.669a5.222,5.222,0,0,0-3.913-5.056h0l-5.09-1.311,2.673-4.528a5.223,5.223,0,0,0-.808-6.344l-4.365-4.365a5.221,5.221,0,0,0-6.346-.806l-4.525,2.671-1.312-5.093a5.225,5.225,0,0,0-5.057-3.913h-6.174a5.224,5.224,0,0,0-5.057,3.916l-1.311,5.09-4.528-2.673a5.223,5.223,0,0,0-6.343.807l-4.366,4.367a5.221,5.221,0,0,0-.807,6.344l2.672,4.527-5.093,1.312a5.222,5.222,0,0,0-3.913,5.056v6.174A5.223,5.223,0,0,0,100.083,59.9Zm1.084-11.231a.222.222,0,0,1,.164-.215l8.308-2.141a2.5,2.5,0,0,0,1.529-3.691l-4.359-7.387a.221.221,0,0,1,.034-.27L111.21,30.6a.222.222,0,0,1,.268-.036l7.387,4.361a2.5,2.5,0,0,0,3.692-1.528l2.141-8.307a.223.223,0,0,1,.215-.166h6.174a.224.224,0,0,1,.216.164l2.14,8.308a2.5,2.5,0,0,0,3.692,1.529l7.386-4.359a.219.219,0,0,1,.27.035l4.366,4.365a.22.22,0,0,1,.035.268l-4.36,7.389a2.5,2.5,0,0,0,1.529,3.691l8.305,2.141a.221.221,0,0,1,.167.215v6.174a.222.222,0,0,1-.164.216l-8.308,2.14a2.5,2.5,0,0,0-1.529,3.692l4.359,7.386a.221.221,0,0,1-.034.27l-4.367,4.367a.221.221,0,0,1-.268.036l-7.387-4.362a2.5,2.5,0,0,0-3.692,1.53l-2.139,8.3a.225.225,0,0,1-.217.168h-6.174a.223.223,0,0,1-.215-.165l-2.141-8.308a2.5,2.5,0,0,0-3.692-1.529l-7.386,4.36a.221.221,0,0,1-.27-.035l-4.366-4.365a.222.222,0,0,1-.035-.269l4.36-7.388a2.5,2.5,0,0,0-1.529-3.692l-8.3-2.14a.222.222,0,0,1-.167-.216Z" fill="#846f75"/><path d="M128,63.721a11.965,11.965,0,1,0-11.964-11.965A11.978,11.978,0,0,0,128,63.721Zm0-18.929a6.965,6.965,0,1,1-6.964,6.964A6.972,6.972,0,0,1,128,44.792Z" fill="#846f75"/><path d="M155.773,178.942H100.227a4.064,4.064,0,0,0-4.06,4.06v42.483a4.064,4.064,0,0,0,4.06,4.06h55.546a4.064,4.064,0,0,0,4.06-4.06V183A4.064,4.064,0,0,0,155.773,178.942Zm-.94,45.6H101.167v-40.6h53.666Z" fill="#846f75"/><path d="M124.225,213.319a2.5,2.5,0,0,0,3.268-1.348l5.631-13.534a2.5,2.5,0,0,0-4.617-1.921l-5.631,13.534A2.5,2.5,0,0,0,124.225,213.319Z" fill="#846f75"/><path d="M137.449,212.733a2.5,2.5,0,0,0,3.535,0l6.722-6.722a2.5,2.5,0,0,0,0-3.535l-6.722-6.722a2.5,2.5,0,1,0-3.535,3.536l4.954,4.954-4.954,4.954A2.5,2.5,0,0,0,137.449,212.733Z" fill="#846f75"/><path d="M115.016,212.733a2.5,2.5,0,1,0,3.535-3.535l-4.954-4.954,4.954-4.954a2.5,2.5,0,0,0-3.535-3.536l-6.722,6.722a2.5,2.5,0,0,0,0,3.535Z" fill="#846f75"/></svg>