<svg xmlns="http://www.w3.org/2000/svg" viewBox="0 0 256 256"><title>icon</title><path d="M198.777,85.693,129.25,45.553a2.493,2.493,0,0,0-2.5,0L57.223,85.693a2.5,2.5,0,0,0-1.25,2.165v80.284a2.5,2.5,0,0,0,1.25,2.165l69.527,40.14a2.5,2.5,0,0,0,2.5,0l69.527-40.14a2.5,2.5,0,0,0,1.25-2.165V87.858A2.5,2.5,0,0,0,198.777,85.693Zm-3.75,81.005L128,205.4,60.973,166.7V89.3L128,50.6l67.027,38.7Z" fill="#846f75"/><path d="M125.77,74.388A35.776,35.776,0,0,0,92.886,108.3a35.369,35.369,0,0,0,11.7,27.775,19.363,19.363,0,0,1,6.218,14.435v.41a6.721,6.721,0,0,0,3.258,5.751v15.116a7.388,7.388,0,0,0,7.379,7.38h.132v2.81a5.678,5.678,0,0,0,5.672,5.671h2.1a5.678,5.678,0,0,0,5.672-5.671v-2.81h.131a7.388,7.388,0,0,0,7.38-7.38V156.666a6.72,6.72,0,0,0,3.257-5.751v-.732a19.66,19.66,0,0,1,6.491-14.36,35.43,35.43,0,0,0,.188-52A35.16,35.16,0,0,0,125.77,74.388Zm4.251,107.584a.673.673,0,0,1-.672.671h-2.1a.672.672,0,0,1-.672-.671v-2.81h3.447Zm5.131-7.81h-13.71a2.382,2.382,0,0,1-2.379-2.38V157.639h18.469v14.143A2.382,2.382,0,0,1,135.152,174.162Zm13.905-86.684a30.429,30.429,0,0,1-.161,44.664,24.671,24.671,0,0,0-8.107,18.041v.732a1.726,1.726,0,0,1-1.723,1.724H117.528a1.726,1.726,0,0,1-1.723-1.724v-.41a24.365,24.365,0,0,0-7.872-18.15,30.388,30.388,0,0,1-10.051-23.861,30.72,30.72,0,0,1,28.234-29.118q1.107-.078,2.2-.077A30.146,30.146,0,0,1,149.057,87.478Z" fill="#846f75"/><path d="M122.808,128.714c-.119,0-.238,0-.357-.008a7.08,7.08,0,0,1-5.117-2.587l-8.9-10.878a7.071,7.071,0,1,1,10.946-8.955l3.953,4.832,13.76-13.761a7.071,7.071,0,1,1,10,10l-19.285,19.286A7.025,7.025,0,0,1,122.808,128.714Zm-8.9-20.021a2.07,2.07,0,0,0-1.6,3.382l8.9,10.879a2.071,2.071,0,0,0,1.5.758l.1,0a2.058,2.058,0,0,0,1.464-.607l19.286-19.286a2.069,2.069,0,0,0,0-2.928,2.118,2.118,0,0,0-2.929,0l-15.714,15.713a2.5,2.5,0,0,1-3.7-.184l-5.7-6.97A2.069,2.069,0,0,0,113.9,108.693Z" fill="#f9b087"/><path d="M128,42.119a2.5,2.5,0,0,1-2.5-2.5V21.333a2.5,2.5,0,0,1,5,0V39.619A2.5,2.5,0,0,1,128,42.119Z" fill="#f9b087"/><path d="M128,237.167a2.5,2.5,0,0,1-2.5-2.5V216.381a2.5,2.5,0,1,1,5,0v18.286A2.5,2.5,0,0,1,128,237.167Z" fill="#f9b087"/><path d="M83.812,53.96a2.5,2.5,0,0,1-2.167-1.25L72.5,36.874a2.5,2.5,0,0,1,4.331-2.5L85.975,50.21a2.5,2.5,0,0,1-2.163,3.75Z" fill="#f9b087"/><path d="M181.336,222.876a2.5,2.5,0,0,1-2.168-1.25l-9.143-15.836a2.5,2.5,0,1,1,4.33-2.5l9.144,15.836a2.5,2.5,0,0,1-2.163,3.75Z" fill="#f9b087"/><path d="M172.188,53.96a2.5,2.5,0,0,1-2.163-3.75l9.143-15.836a2.5,2.5,0,0,1,4.331,2.5L174.355,52.71A2.5,2.5,0,0,1,172.188,53.96Z" fill="#f9b087"/><path d="M74.664,222.876a2.5,2.5,0,0,1-2.163-3.75l9.144-15.836a2.5,2.5,0,0,1,4.33,2.5l-9.143,15.836A2.5,2.5,0,0,1,74.664,222.876Z" fill="#f9b087"/><path d="M234.667,130.5H216.381a2.5,2.5,0,1,1,0-5h18.286a2.5,2.5,0,1,1,0,5Z" fill="#f9b087"/><path d="M39.619,130.5H21.333a2.5,2.5,0,0,1,0-5H39.619a2.5,2.5,0,0,1,0,5Z" fill="#f9b087"/><path d="M36.022,183.147a2.5,2.5,0,0,1-1.252-4.665l15.836-9.142a2.5,2.5,0,0,1,2.5,4.33L37.27,182.813A2.492,2.492,0,0,1,36.022,183.147Z" fill="#f9b087"/><path d="M204.938,85.624a2.5,2.5,0,0,1-1.252-4.665l15.836-9.144a2.5,2.5,0,0,1,2.5,4.331l-15.836,9.143A2.483,2.483,0,0,1,204.938,85.624Z" fill="#f9b087"/><path d="M219.978,183.147a2.492,2.492,0,0,1-1.248-.334l-15.836-9.143a2.5,2.5,0,0,1,2.5-4.33l15.836,9.142a2.5,2.5,0,0,1-1.252,4.665Z" fill="#f9b087"/><path d="M51.062,85.624a2.483,2.483,0,0,1-1.248-.335L33.978,76.146a2.5,2.5,0,0,1,2.5-4.331l15.836,9.144a2.5,2.5,0,0,1-1.252,4.665Z" fill="#f9b087"/></svg>