<svg xmlns="http://www.w3.org/2000/svg" viewBox="0 0 256 256"><title>icon</title><path d="M128,212.167A84.167,84.167,0,1,1,212.167,128,84.262,84.262,0,0,1,128,212.167Zm0-163.334A79.167,79.167,0,1,0,207.167,128,79.258,79.258,0,0,0,128,48.833Z" fill="#ebe7f2"/><path d="M149.51,143.614a2.5,2.5,0,0,1,0-5,12.363,12.363,0,1,0,0-24.725,2.5,2.5,0,0,1,0-5,17.363,17.363,0,1,1,0,34.725Z" fill="#65c1d6"/><path d="M128,25.554A102.446,102.446,0,1,0,230.446,128,102.562,102.562,0,0,0,128,25.554Zm0,199.892A97.446,97.446,0,1,1,225.446,128,97.556,97.556,0,0,1,128,225.446Z" fill="#846f75"/><path d="M148.723,85.826a7.66,7.66,0,0,0-7.038-.886L96.272,101.864H81.762a2.5,2.5,0,0,0-2.5,2.5v4.087h-5.2A9.068,9.068,0,0,0,65,117.509v20.982a9.068,9.068,0,0,0,9.058,9.058h5.2v4.087a2.5,2.5,0,0,0,2.5,2.5h14.51l45.413,16.924a7.653,7.653,0,0,0,10.325-7.171V92.111A7.656,7.656,0,0,0,148.723,85.826ZM74.058,142.549A4.062,4.062,0,0,1,70,138.491V117.509a4.062,4.062,0,0,1,4.058-4.058h5.2v29.1Zm10.2-35.685h9.962v42.272H84.262Zm62.748,57.025a2.653,2.653,0,0,1-3.579,2.485L99.224,149.9V106.1l44.207-16.475a2.653,2.653,0,0,1,3.579,2.485Z" fill="#846f75"/><path d="M170.4,105.361a2.5,2.5,0,0,0-3.535,3.535,24.573,24.573,0,0,1,0,34.71,2.5,2.5,0,1,0,3.535,3.536A29.577,29.577,0,0,0,170.4,105.361Z" fill="#846f75"/><path d="M175.313,96.913a2.5,2.5,0,0,0,0,3.535,36.536,36.536,0,0,1,0,51.606,2.5,2.5,0,0,0,3.535,3.535,41.539,41.539,0,0,0,0-58.676A2.5,2.5,0,0,0,175.313,96.913Z" fill="#846f75"/></svg>